<?xml version="1.0" encoding="UTF-8"?>
<svg xmlns="http://www.w3.org/2000/svg" xmlns:xlink="http://www.w3.org/1999/xlink" width="165pt" height="82.499998pt" viewBox="0 0 165 82.499998" version="1.2">
<defs>
<clipPath id="clip1">
  <path d="M 0.496094 0 L 164.503906 0 L 164.503906 82.003906 L 0.496094 82.003906 Z M 0.496094 0 "/>
</clipPath>
<clipPath id="clip2">
  <path d="M 95 29 L 158.96875 29 L 158.96875 49 L 95 49 Z M 95 29 "/>
</clipPath>
<clipPath id="clip3">
  <path d="M 5.609375 27.425781 L 27 27.425781 L 27 49 L 5.609375 49 Z M 5.609375 27.425781 "/>
</clipPath>
<clipPath id="clip4">
  <path d="M 56 34 L 70 34 L 70 53.964844 L 56 53.964844 Z M 56 34 "/>
</clipPath>
</defs>
<g id="surface1">
<g clip-path="url(#clip1)" clip-rule="nonzero">
<path style=" stroke:none;fill-rule:nonzero;fill:rgb(100%,100%,100%);fill-opacity:1;" d="M 0.496094 0 L 164.503906 0 L 164.503906 89.457031 L 0.496094 89.457031 Z M 0.496094 0 "/>
<path style=" stroke:none;fill-rule:nonzero;fill:rgb(100%,100%,100%);fill-opacity:1;" d="M 0.496094 0 L 164.503906 0 L 164.503906 82.003906 L 0.496094 82.003906 Z M 0.496094 0 "/>
<path style=" stroke:none;fill-rule:nonzero;fill:rgb(100%,100%,100%);fill-opacity:1;" d="M 0.496094 0 L 164.503906 0 L 164.503906 82.003906 L 0.496094 82.003906 Z M 0.496094 0 "/>
</g>
<g clip-path="url(#clip2)" clip-rule="nonzero">
<path style=" stroke:none;fill-rule:nonzero;fill:rgb(37.249756%,38.819885%,40.779114%);fill-opacity:1;" d="M 105.566406 48.019531 C 102.820312 48.019531 100.523438 47.113281 98.675781 45.300781 C 96.84375 43.488281 95.929688 41.230469 95.929688 38.519531 C 95.929688 35.808594 96.84375 33.558594 98.675781 31.765625 C 100.503906 29.9375 102.800781 29.019531 105.566406 29.019531 C 108.363281 29.019531 110.632812 30.011719 112.378906 31.992188 L 110.667969 33.617188 C 109.339844 32.042969 107.636719 31.257812 105.566406 31.257812 C 103.511719 31.257812 101.792969 31.933594 100.410156 33.289062 C 99.046875 34.625 98.363281 36.371094 98.363281 38.519531 C 98.363281 40.671875 99.046875 42.414062 100.410156 43.753906 C 101.792969 45.109375 103.511719 45.785156 105.566406 45.785156 C 107.722656 45.785156 109.597656 44.894531 111.1875 43.117188 L 112.921875 44.769531 C 112.03125 45.8125 110.953125 46.613281 109.683594 47.167969 C 108.375 47.746094 107 48.027344 105.566406 48.019531 Z M 116.863281 29.425781 L 116.863281 47.613281 L 114.480469 47.613281 L 114.480469 29.425781 Z M 118.585938 41.390625 C 118.585938 39.476562 119.199219 37.894531 120.425781 36.640625 C 121.667969 35.386719 123.230469 34.761719 125.113281 34.761719 C 126.996094 34.761719 128.550781 35.386719 129.777344 36.640625 C 131.019531 37.890625 131.640625 39.476562 131.640625 41.390625 C 131.640625 43.320312 131.019531 44.902344 129.777344 46.140625 C 128.550781 47.390625 126.996094 48.019531 125.113281 48.019531 C 123.230469 48.019531 121.667969 47.390625 120.425781 46.136719 C 119.199219 44.886719 118.585938 43.304688 118.585938 41.390625 Z M 120.96875 41.390625 C 120.96875 42.726562 121.367188 43.8125 122.160156 44.640625 C 122.957031 45.46875 123.941406 45.882812 125.113281 45.882812 C 126.289062 45.882812 127.273438 45.46875 128.066406 44.640625 C 128.859375 43.8125 129.257812 42.726562 129.257812 41.390625 C 129.257812 40.070312 128.863281 38.992188 128.066406 38.164062 C 127.257812 37.316406 126.273438 36.894531 125.113281 36.894531 C 123.957031 36.894531 122.972656 37.316406 122.160156 38.164062 C 121.367188 38.996094 120.96875 40.070312 120.96875 41.390625 Z M 144.480469 47.613281 L 142.203125 47.613281 L 142.203125 45.886719 L 142.097656 45.886719 C 141.734375 46.496094 141.175781 47.003906 140.425781 47.410156 C 139.699219 47.8125 138.917969 48.015625 138.082031 48.019531 C 136.527344 48.019531 135.332031 47.582031 134.496094 46.710938 C 133.65625 45.839844 133.238281 44.597656 133.238281 42.988281 L 133.238281 35.167969 L 135.621094 35.167969 L 135.621094 42.839844 C 135.671875 44.871094 136.71875 45.886719 138.753906 45.886719 C 139.703125 45.886719 140.5 45.507812 141.136719 44.753906 C 141.777344 44.003906 142.097656 43.101562 142.097656 42.050781 L 142.097656 35.167969 L 144.480469 35.167969 Z M 152.222656 48.019531 C 150.566406 48.019531 149.144531 47.375 147.949219 46.089844 C 146.777344 44.785156 146.1875 43.21875 146.1875 41.390625 C 146.1875 39.5625 146.777344 37.996094 147.949219 36.691406 C 149.140625 35.40625 150.566406 34.761719 152.222656 34.761719 C 153.15625 34.761719 154.007812 34.957031 154.777344 35.34375 C 155.542969 35.734375 156.136719 36.25 156.550781 36.894531 L 156.65625 36.894531 L 156.550781 35.167969 L 156.550781 29.425781 L 158.933594 29.425781 L 158.933594 47.613281 L 156.652344 47.613281 L 156.652344 45.886719 L 156.546875 45.886719 C 156.136719 46.527344 155.542969 47.046875 154.773438 47.433594 C 154.007812 47.820312 153.15625 48.015625 152.222656 48.019531 Z M 152.613281 45.886719 C 153.785156 45.886719 154.746094 45.46875 155.488281 44.640625 C 156.265625 43.8125 156.652344 42.726562 156.652344 41.390625 C 156.652344 40.085938 156.265625 39.011719 155.488281 38.164062 C 154.726562 37.320312 153.769531 36.894531 152.613281 36.894531 C 151.472656 36.894531 150.515625 37.316406 149.738281 38.164062 C 148.960938 39.011719 148.570312 40.085938 148.570312 41.390625 C 148.570312 42.710938 148.960938 43.785156 149.738281 44.617188 C 150.515625 45.460938 151.472656 45.886719 152.613281 45.886719 Z M 152.613281 45.886719 "/>
</g>
<g clip-path="url(#clip3)" clip-rule="nonzero">
<path style=" stroke:none;fill-rule:nonzero;fill:rgb(25.878906%,52.159119%,95.689392%);fill-opacity:1;" d="M 16.347656 39.636719 L 16.347656 36.824219 L 25.945312 36.824219 C 26.054688 37.394531 26.105469 37.96875 26.101562 38.550781 C 26.101562 40.65625 25.511719 43.269531 23.617188 45.125 C 21.773438 47.007812 19.417969 48.015625 16.296875 48.015625 C 10.507812 48.015625 5.644531 43.394531 5.644531 37.71875 C 5.644531 32.046875 10.507812 27.425781 16.296875 27.425781 C 19.496094 27.425781 21.773438 28.65625 23.488281 30.261719 L 21.464844 32.246094 C 20.238281 31.117188 18.574219 30.238281 16.296875 30.238281 C 12.070312 30.238281 8.769531 33.578125 8.769531 37.71875 C 8.769531 41.863281 12.070312 45.203125 16.296875 45.203125 C 19.035156 45.203125 20.597656 44.125 21.59375 43.144531 C 22.410156 42.347656 22.945312 41.203125 23.152344 39.640625 Z M 16.347656 39.636719 "/>
</g>
<path style=" stroke:none;fill-rule:nonzero;fill:rgb(91.758728%,26.269531%,20.779419%);fill-opacity:1;" d="M 40.730469 41.386719 C 40.730469 45.203125 37.679688 48.015625 33.945312 48.015625 C 30.207031 48.015625 27.160156 45.203125 27.160156 41.386719 C 27.160156 37.542969 30.207031 34.757812 33.945312 34.757812 C 37.683594 34.757812 40.730469 37.542969 40.730469 41.386719 Z M 37.757812 41.386719 C 37.757812 39 35.992188 37.367188 33.945312 37.367188 C 31.898438 37.367188 30.128906 39 30.128906 41.386719 C 30.128906 43.746094 31.898438 45.402344 33.945312 45.402344 C 35.992188 45.402344 37.757812 43.746094 37.757812 41.386719 Z M 37.757812 41.386719 "/>
<path style=" stroke:none;fill-rule:nonzero;fill:rgb(98.429871%,73.728943%,1.568604%);fill-opacity:1;" d="M 55.527344 41.386719 C 55.527344 45.203125 52.484375 48.015625 48.746094 48.015625 C 45.003906 48.015625 41.960938 45.203125 41.960938 41.386719 C 41.960938 37.542969 45.007812 34.757812 48.746094 34.757812 C 52.484375 34.757812 55.527344 37.542969 55.527344 41.386719 Z M 52.558594 41.386719 C 52.558594 39 50.792969 37.367188 48.746094 37.367188 C 46.695312 37.367188 44.929688 39 44.929688 41.386719 C 44.929688 43.746094 46.695312 45.402344 48.746094 45.402344 C 50.792969 45.402344 52.558594 43.746094 52.558594 41.386719 Z M 52.558594 41.386719 "/>
<g clip-path="url(#clip4)" clip-rule="nonzero">
<path style=" stroke:none;fill-rule:nonzero;fill:rgb(25.878906%,52.159119%,95.689392%);fill-opacity:1;" d="M 69.714844 35.160156 L 69.714844 47.058594 C 69.714844 51.957031 66.769531 53.964844 63.289062 53.964844 C 60.011719 53.964844 58.039062 51.804688 57.296875 50.046875 L 59.882812 48.992188 C 60.34375 50.074219 61.46875 51.351562 63.289062 51.351562 C 65.515625 51.351562 66.898438 49.996094 66.898438 47.460938 L 66.898438 46.507812 L 66.796875 46.507812 C 66.128906 47.3125 64.851562 48.015625 63.238281 48.015625 C 59.859375 48.015625 56.761719 45.125 56.761719 41.410156 C 56.761719 37.667969 59.859375 34.757812 63.238281 34.757812 C 64.851562 34.757812 66.128906 35.460938 66.796875 36.238281 L 66.898438 36.238281 L 66.898438 35.160156 Z M 67.101562 41.410156 C 67.101562 39.074219 65.515625 37.367188 63.492188 37.367188 C 61.445312 37.367188 59.730469 39.074219 59.730469 41.410156 C 59.730469 43.722656 61.445312 45.402344 63.492188 45.402344 C 65.515625 45.402344 67.101562 43.722656 67.101562 41.410156 Z M 67.101562 41.410156 "/>
</g>
<path style=" stroke:none;fill-rule:nonzero;fill:rgb(20.388794%,65.879822%,32.548523%);fill-opacity:1;" d="M 71.773438 28.195312 L 74.742188 28.195312 L 74.742188 47.613281 L 71.773438 47.613281 Z M 71.773438 28.195312 "/>
<path style=" stroke:none;fill-rule:nonzero;fill:rgb(91.758728%,26.269531%,20.779419%);fill-opacity:1;" d="M 86.210938 43.570312 L 88.515625 45.078125 C 87.773438 46.15625 85.980469 48.015625 82.882812 48.015625 C 79.042969 48.015625 76.175781 45.101562 76.175781 41.386719 C 76.175781 37.445312 79.066406 34.757812 82.550781 34.757812 C 86.058594 34.757812 87.773438 37.496094 88.335938 38.976562 L 88.640625 39.730469 L 79.601562 43.394531 C 80.292969 44.726562 81.371094 45.402344 82.878906 45.402344 C 84.390625 45.402344 85.441406 44.675781 86.210938 43.570312 Z M 79.117188 41.1875 L 85.160156 38.726562 C 84.828125 37.894531 83.828125 37.320312 82.652344 37.320312 C 81.140625 37.320312 79.042969 38.621094 79.117188 41.183594 Z M 79.117188 41.1875 "/>
</g>
</svg>
