<?xml version="1.0" encoding="UTF-8"?>
<svg xmlns="http://www.w3.org/2000/svg" xmlns:xlink="http://www.w3.org/1999/xlink" width="165pt" height="82.499998pt" viewBox="0 0 165 82.499998" version="1.2">
<defs>
<clipPath id="clip1">
  <path d="M 0.496094 0 L 164.503906 0 L 164.503906 82.003906 L 0.496094 82.003906 Z M 0.496094 0 "/>
</clipPath>
<clipPath id="clip2">
  <path d="M 0.496094 7.84375 L 163.011719 7.84375 L 163.011719 74.195312 L 0.496094 74.195312 Z M 0.496094 7.84375 "/>
</clipPath>
</defs>
<g id="surface1">
<g clip-path="url(#clip1)" clip-rule="nonzero">
<path style=" stroke:none;fill-rule:nonzero;fill:rgb(100%,100%,100%);fill-opacity:1;" d="M 0.496094 0 L 164.503906 0 L 164.503906 82.003906 L 0.496094 82.003906 Z M 0.496094 0 "/>
<path style=" stroke:none;fill-rule:nonzero;fill:rgb(100%,100%,100%);fill-opacity:1;" d="M 0.496094 0 L 164.503906 0 L 164.503906 82.003906 L 0.496094 82.003906 Z M 0.496094 0 "/>
</g>
<g clip-path="url(#clip2)" clip-rule="nonzero">
<path style=" stroke:none;fill-rule:nonzero;fill:rgb(100%,100%,100%);fill-opacity:1;" d="M 0.589844 7.84375 L 163.175781 7.84375 L 163.175781 74.238281 L 0.589844 74.238281 Z M 0.589844 7.84375 "/>
</g>
<path style=" stroke:none;fill-rule:nonzero;fill:rgb(0%,0%,0%);fill-opacity:1;" d="M 29.214844 26.949219 C 28.851562 25.828125 28.328125 24.839844 27.625 24.007812 C 26.921875 23.175781 26.085938 22.5 25.097656 22.003906 C 24.105469 21.507812 22.960938 21.273438 21.707031 21.273438 C 20.820312 21.273438 20.011719 21.378906 19.28125 21.5625 C 18.554688 21.742188 17.925781 22.003906 17.378906 22.289062 C 16.832031 22.578125 16.363281 22.914062 15.996094 23.28125 C 15.632812 23.644531 15.347656 24.007812 15.191406 24.347656 L 14.851562 22.890625 C 14.796875 22.734375 14.746094 22.550781 14.667969 22.394531 C 14.617188 22.238281 14.539062 22.109375 14.433594 21.976562 C 14.328125 21.847656 14.199219 21.769531 14.066406 21.691406 C 13.910156 21.613281 13.753906 21.585938 13.546875 21.585938 L 11.019531 21.585938 C 10.863281 21.585938 10.730469 21.613281 10.546875 21.640625 C 10.390625 21.664062 10.234375 21.742188 10.078125 21.875 L 10.183594 21.820312 C 10.027344 21.925781 9.898438 22.054688 9.792969 22.238281 C 9.6875 22.421875 9.660156 22.601562 9.660156 22.8125 L 9.660156 34.472656 L 16.074219 34.472656 L 16.074219 30.671875 C 16.101562 30.175781 16.230469 29.707031 16.492188 29.292969 C 16.726562 28.875 17.015625 28.484375 17.378906 28.171875 C 17.71875 27.859375 18.109375 27.601562 18.527344 27.445312 C 18.945312 27.261719 19.359375 27.183594 19.753906 27.183594 C 20.222656 27.183594 20.691406 27.289062 21.132812 27.46875 C 21.578125 27.652344 21.996094 27.914062 22.332031 28.25 C 22.699219 28.589844 22.984375 28.953125 23.195312 29.394531 C 23.402344 29.8125 23.507812 30.28125 23.507812 30.75 L 23.507812 41.578125 C 23.507812 42.042969 23.585938 42.355469 23.765625 42.511719 C 23.949219 42.667969 24.261719 42.746094 24.757812 42.746094 L 28.617188 42.746094 C 29.007812 42.746094 29.320312 42.644531 29.503906 42.433594 C 29.6875 42.226562 29.789062 41.886719 29.789062 41.472656 L 29.789062 30.539062 C 29.738281 29.265625 29.582031 28.066406 29.214844 26.949219 "/>
<path style=" stroke:none;fill-rule:nonzero;fill:rgb(0%,0%,0%);fill-opacity:1;" d="M 53.90625 23.226562 C 53.671875 22.757812 53.644531 22.394531 53.777344 22.054688 C 53.90625 21.742188 54.246094 21.5625 54.765625 21.5625 L 59.042969 21.5625 C 59.332031 21.5625 59.589844 21.640625 59.800781 21.796875 C 60.007812 21.953125 60.164062 22.1875 60.269531 22.472656 C 60.453125 23.070312 60.660156 23.722656 60.894531 24.449219 C 61.128906 25.179688 61.363281 25.90625 61.625 26.664062 C 61.886719 27.417969 62.121094 28.171875 62.355469 28.902344 C 62.589844 29.65625 62.824219 30.332031 63.03125 30.957031 C 63.242188 31.582031 63.421875 32.128906 63.578125 32.597656 C 63.738281 33.066406 63.867188 33.402344 63.945312 33.585938 L 67.492188 22.445312 C 67.648438 22.082031 67.804688 21.847656 67.984375 21.71875 C 68.167969 21.585938 68.429688 21.535156 68.769531 21.535156 L 72.730469 21.535156 C 73.042969 21.535156 73.304688 21.585938 73.460938 21.640625 C 73.617188 21.71875 73.75 21.820312 73.800781 21.953125 C 73.851562 22.082031 73.878906 22.238281 73.828125 22.421875 C 73.800781 22.601562 73.75 22.785156 73.671875 22.96875 L 71.84375 27.445312 C 71.921875 27.625 72.078125 27.964844 72.289062 28.40625 C 72.523438 28.847656 72.757812 29.371094 73.042969 29.941406 C 73.332031 30.515625 73.617188 31.113281 73.90625 31.738281 C 74.191406 32.363281 74.453125 32.960938 74.632812 33.480469 L 78.726562 22.421875 C 78.882812 22.054688 79.015625 21.820312 79.171875 21.691406 C 79.328125 21.5625 79.535156 21.507812 79.847656 21.507812 L 83.5 21.507812 C 84.019531 21.507812 84.410156 21.613281 84.59375 21.820312 C 84.804688 22.03125 84.804688 22.394531 84.621094 22.941406 L 76.796875 41.941406 C 76.695312 42.148438 76.539062 42.304688 76.328125 42.433594 C 76.121094 42.566406 75.835938 42.644531 75.441406 42.644531 L 73.695312 42.644531 C 73.253906 42.644531 72.941406 42.566406 72.757812 42.433594 C 72.550781 42.304688 72.390625 42.121094 72.261719 41.886719 L 69.160156 34.339844 L 66.109375 41.941406 C 65.980469 42.148438 65.847656 42.304688 65.664062 42.433594 C 65.507812 42.566406 65.25 42.644531 64.910156 42.644531 L 62.929688 42.644531 C 62.484375 42.644531 62.171875 42.589844 61.988281 42.460938 C 61.808594 42.332031 61.675781 42.148438 61.574219 41.941406 Z M 53.90625 23.226562 "/>
<path style=" stroke:none;fill-rule:nonzero;fill:rgb(0%,0%,0%);fill-opacity:1;" d="M 105.320312 37.957031 C 104.59375 39.078125 103.707031 40.015625 102.636719 40.820312 C 101.566406 41.601562 100.394531 42.175781 99.066406 42.511719 C 97.578125 42.902344 96.117188 42.980469 94.683594 42.773438 C 93.222656 42.566406 91.894531 42.121094 90.644531 41.421875 C 89.417969 40.71875 88.324219 39.804688 87.410156 38.660156 C 86.496094 37.515625 85.847656 36.1875 85.453125 34.679688 C 85.21875 33.742188 85.089844 32.777344 85.089844 31.84375 C 85.089844 30.90625 85.21875 29.996094 85.429688 29.109375 C 85.664062 28.222656 85.976562 27.390625 86.417969 26.585938 C 86.863281 25.777344 87.410156 25.050781 88.035156 24.398438 C 88.660156 23.746094 89.390625 23.175781 90.226562 22.679688 C 91.035156 22.1875 91.945312 21.820312 92.910156 21.585938 C 93.796875 21.351562 94.710938 21.25 95.597656 21.273438 C 96.507812 21.300781 97.371094 21.429688 98.230469 21.664062 C 99.089844 21.898438 99.898438 22.238281 100.65625 22.707031 C 101.410156 23.148438 102.113281 23.667969 102.742188 24.269531 C 103.367188 24.867188 103.914062 25.542969 104.355469 26.296875 C 104.800781 27.054688 105.140625 27.859375 105.375 28.71875 C 105.53125 29.265625 105.636719 29.734375 105.714844 30.097656 C 105.792969 30.460938 105.765625 30.75 105.6875 31.007812 C 105.582031 31.269531 105.375 31.476562 105.035156 31.632812 C 104.695312 31.816406 104.199219 31.972656 103.523438 32.15625 L 91.894531 35.148438 C 92.179688 35.796875 92.546875 36.320312 92.988281 36.710938 C 93.433594 37.101562 93.902344 37.359375 94.421875 37.515625 C 94.917969 37.671875 95.441406 37.75 95.9375 37.75 C 96.457031 37.75 96.925781 37.699219 97.34375 37.566406 C 97.734375 37.464844 98.125 37.332031 98.515625 37.152344 C 98.90625 36.96875 99.273438 36.761719 99.613281 36.527344 C 99.949219 36.292969 100.265625 36.058594 100.550781 35.796875 C 100.8125 35.539062 101.019531 35.277344 101.175781 35.042969 C 101.308594 34.863281 101.4375 34.707031 101.542969 34.628906 C 101.644531 34.523438 101.777344 34.445312 101.90625 34.417969 C 102.035156 34.394531 102.191406 34.394531 102.375 34.445312 C 102.558594 34.496094 102.742188 34.601562 102.976562 34.730469 L 105.191406 36.214844 C 105.347656 36.320312 105.453125 36.421875 105.503906 36.527344 C 105.554688 36.632812 105.609375 36.734375 105.636719 36.867188 C 105.6875 37.074219 105.6875 37.28125 105.609375 37.464844 C 105.558594 37.621094 105.453125 37.800781 105.320312 37.957031 M 94.109375 26.53125 C 93.695312 26.636719 93.300781 26.820312 92.964844 27.105469 C 92.625 27.367188 92.3125 27.679688 92.023438 28.066406 C 91.765625 28.433594 91.53125 28.824219 91.347656 29.265625 C 91.164062 29.683594 91.035156 30.097656 90.957031 30.515625 L 99.222656 28.40625 C 98.882812 28.042969 98.542969 27.730469 98.179688 27.445312 C 97.8125 27.15625 97.449219 26.921875 97.03125 26.742188 C 96.613281 26.558594 96.171875 26.453125 95.703125 26.402344 C 95.207031 26.324219 94.683594 26.375 94.109375 26.53125 "/>
<path style=" stroke:none;fill-rule:nonzero;fill:rgb(0%,0%,0%);fill-opacity:1;" d="M 112.046875 36.164062 C 112.363281 36.476562 112.675781 36.710938 113.011719 36.917969 C 113.351562 37.125 113.691406 37.28125 114.03125 37.410156 C 114.34375 37.542969 114.628906 37.621094 114.890625 37.699219 C 115.125 37.75 115.308594 37.777344 115.386719 37.777344 C 115.59375 37.777344 115.855469 37.777344 116.195312 37.75 C 116.53125 37.722656 116.847656 37.671875 117.132812 37.59375 C 117.445312 37.515625 117.679688 37.386719 117.914062 37.179688 C 118.125 36.996094 118.226562 36.734375 118.226562 36.371094 C 118.226562 36.058594 118.175781 35.824219 118.046875 35.640625 C 117.914062 35.460938 117.734375 35.304688 117.523438 35.171875 C 117.289062 35.042969 117.003906 34.9375 116.664062 34.835938 C 116.324219 34.730469 115.933594 34.628906 115.515625 34.496094 C 114.1875 34.132812 113.089844 33.714844 112.207031 33.222656 C 111.34375 32.726562 110.640625 32.15625 110.144531 31.554688 C 109.648438 30.929688 109.285156 30.28125 109.078125 29.578125 C 108.867188 28.875 108.761719 28.121094 108.761719 27.339844 C 108.761719 26.429688 108.945312 25.570312 109.3125 24.816406 C 109.675781 24.058594 110.199219 23.410156 110.875 22.863281 C 111.554688 22.316406 112.363281 21.898438 113.300781 21.613281 C 114.238281 21.328125 115.308594 21.171875 116.453125 21.171875 C 117.160156 21.171875 117.8125 21.222656 118.410156 21.351562 C 119.011719 21.457031 119.609375 21.664062 120.15625 21.898438 C 120.703125 22.160156 121.253906 22.472656 121.773438 22.863281 C 122.296875 23.253906 122.816406 23.722656 123.339844 24.269531 C 123.519531 24.503906 123.625 24.710938 123.625 24.894531 C 123.625 25.074219 123.496094 25.285156 123.261719 25.519531 C 122.816406 25.882812 122.398438 26.21875 122.007812 26.558594 C 121.617188 26.898438 121.199219 27.289062 120.78125 27.703125 C 120.652344 27.808594 120.523438 27.886719 120.390625 27.914062 C 120.261719 27.9375 120.132812 27.9375 120 27.914062 C 119.871094 27.886719 119.765625 27.835938 119.660156 27.757812 C 119.558594 27.679688 119.453125 27.574219 119.347656 27.46875 C 118.957031 27.027344 118.515625 26.742188 118.019531 26.585938 C 117.523438 26.429688 117.054688 26.351562 116.613281 26.351562 C 116.0625 26.351562 115.621094 26.453125 115.308594 26.636719 C 114.996094 26.820312 114.839844 27.105469 114.863281 27.496094 C 114.890625 27.78125 114.996094 28.015625 115.175781 28.171875 C 115.359375 28.328125 115.621094 28.457031 115.90625 28.5625 C 116.195312 28.667969 116.480469 28.746094 116.820312 28.796875 C 117.132812 28.847656 117.417969 28.925781 117.707031 29.003906 C 118.695312 29.316406 119.636719 29.683594 120.46875 30.046875 C 121.304688 30.4375 122.035156 30.878906 122.632812 31.425781 C 123.234375 31.972656 123.730469 32.625 124.066406 33.402344 C 124.40625 34.160156 124.5625 35.09375 124.5625 36.1875 C 124.5625 37.28125 124.355469 38.269531 123.910156 39.128906 C 123.46875 39.988281 122.867188 40.71875 122.113281 41.316406 C 121.355469 41.914062 120.445312 42.355469 119.375 42.667969 C 118.332031 42.980469 117.183594 43.136719 115.984375 43.136719 C 115.308594 43.136719 114.605469 43.085938 113.875 42.957031 C 113.167969 42.824219 112.464844 42.644531 111.8125 42.355469 C 111.136719 42.097656 110.511719 41.734375 109.910156 41.316406 C 109.3125 40.898438 108.789062 40.378906 108.320312 39.753906 C 108.191406 39.597656 108.113281 39.441406 108.035156 39.261719 C 107.980469 39.078125 107.957031 38.921875 107.957031 38.738281 C 107.957031 38.582031 108.007812 38.425781 108.058594 38.269531 C 108.113281 38.140625 108.214844 38.011719 108.347656 37.90625 L 110.484375 35.746094 C 110.746094 35.511719 110.980469 35.433594 111.1875 35.511719 C 111.449219 35.667969 111.734375 35.851562 112.046875 36.164062 "/>
<path style=" stroke:none;fill-rule:nonzero;fill:rgb(0%,0%,0%);fill-opacity:1;" d="M 127.640625 29.003906 C 127.613281 29.109375 127.613281 41.472656 127.613281 41.472656 C 127.613281 42.332031 128.03125 42.746094 128.839844 42.746094 L 132.671875 42.746094 C 133.117188 42.746094 133.429688 42.644531 133.664062 42.433594 C 133.898438 42.226562 134 41.886719 134 41.472656 C 134 41.472656 133.976562 29.109375 133.949219 29.003906 Z M 127.640625 29.003906 "/>
<path style=" stroke:none;fill-rule:nonzero;fill:rgb(0%,0%,0%);fill-opacity:1;" d="M 140.625 36.164062 C 140.9375 36.476562 141.25 36.710938 141.589844 36.917969 C 141.929688 37.125 142.265625 37.28125 142.605469 37.410156 C 142.917969 37.542969 143.207031 37.621094 143.464844 37.699219 C 143.699219 37.75 143.882812 37.777344 143.960938 37.777344 C 144.171875 37.777344 144.429688 37.777344 144.769531 37.75 C 145.109375 37.722656 145.421875 37.671875 145.707031 37.59375 C 146.019531 37.515625 146.253906 37.386719 146.492188 37.179688 C 146.726562 36.96875 146.804688 36.734375 146.804688 36.371094 C 146.804688 36.058594 146.75 35.824219 146.621094 35.640625 C 146.492188 35.460938 146.308594 35.304688 146.097656 35.171875 C 145.863281 35.042969 145.578125 34.9375 145.238281 34.835938 C 144.898438 34.730469 144.507812 34.628906 144.089844 34.496094 C 142.761719 34.132812 141.667969 33.714844 140.78125 33.222656 C 139.921875 32.726562 139.214844 32.15625 138.722656 31.554688 C 138.226562 30.929688 137.859375 30.28125 137.652344 29.578125 C 137.441406 28.875 137.339844 28.121094 137.339844 27.339844 C 137.339844 26.429688 137.519531 25.570312 137.886719 24.816406 C 138.25 24.058594 138.773438 23.410156 139.449219 22.863281 C 140.128906 22.316406 140.9375 21.898438 141.875 21.613281 C 142.8125 21.328125 143.882812 21.171875 145.03125 21.171875 C 145.734375 21.171875 146.386719 21.222656 146.984375 21.351562 C 147.585938 21.457031 148.183594 21.664062 148.734375 21.898438 C 149.28125 22.160156 149.828125 22.472656 150.347656 22.863281 C 150.871094 23.253906 151.390625 23.722656 151.914062 24.269531 C 152.097656 24.503906 152.199219 24.710938 152.199219 24.894531 C 152.199219 25.074219 152.070312 25.285156 151.835938 25.519531 C 151.390625 25.882812 150.976562 26.21875 150.582031 26.558594 C 150.191406 26.898438 149.777344 27.289062 149.359375 27.703125 C 149.226562 27.808594 149.097656 27.886719 148.96875 27.914062 C 148.835938 27.9375 148.707031 27.9375 148.578125 27.914062 C 148.445312 27.886719 148.339844 27.835938 148.238281 27.757812 C 148.132812 27.679688 148.027344 27.574219 147.925781 27.46875 C 147.535156 27.027344 147.089844 26.742188 146.59375 26.585938 C 146.097656 26.429688 145.628906 26.351562 145.1875 26.351562 C 144.640625 26.351562 144.195312 26.453125 143.882812 26.636719 C 143.570312 26.820312 143.414062 27.105469 143.441406 27.496094 C 143.464844 27.78125 143.570312 28.015625 143.753906 28.171875 C 143.933594 28.328125 144.195312 28.457031 144.484375 28.5625 C 144.769531 28.667969 145.054688 28.746094 145.394531 28.796875 C 145.707031 28.847656 145.996094 28.925781 146.28125 29.003906 C 147.273438 29.316406 148.210938 29.683594 149.046875 30.046875 C 149.878906 30.4375 150.609375 30.878906 151.210938 31.425781 C 151.808594 31.972656 152.304688 32.625 152.644531 33.402344 C 152.984375 34.160156 153.164062 35.09375 153.164062 36.1875 C 153.164062 37.28125 152.957031 38.269531 152.511719 39.128906 C 152.070312 39.988281 151.46875 40.71875 150.714844 41.316406 C 149.957031 41.914062 149.046875 42.355469 147.976562 42.667969 C 146.933594 42.980469 145.785156 43.136719 144.585938 43.136719 C 143.910156 43.136719 143.207031 43.085938 142.476562 42.957031 C 141.769531 42.824219 141.066406 42.644531 140.414062 42.355469 C 139.738281 42.097656 139.113281 41.734375 138.511719 41.316406 C 137.914062 40.898438 137.363281 40.378906 136.921875 39.753906 C 136.792969 39.597656 136.714844 39.441406 136.636719 39.261719 C 136.582031 39.078125 136.558594 38.921875 136.558594 38.738281 C 136.558594 38.582031 136.582031 38.425781 136.660156 38.269531 C 136.714844 38.140625 136.816406 38.011719 136.949219 37.90625 L 139.085938 35.746094 C 139.347656 35.511719 139.582031 35.433594 139.789062 35.511719 C 140.023438 35.667969 140.285156 35.851562 140.625 36.164062 "/>
<path style=" stroke:none;fill-rule:nonzero;fill:rgb(0%,0%,0%);fill-opacity:1;" d="M 52.65625 37.957031 C 51.925781 39.078125 51.039062 40.015625 49.96875 40.820312 C 48.902344 41.601562 47.726562 42.175781 46.398438 42.511719 C 44.910156 42.902344 43.453125 42.980469 42.019531 42.773438 C 40.558594 42.566406 39.226562 42.121094 37.976562 41.421875 C 36.75 40.71875 35.65625 39.804688 34.742188 38.660156 C 33.832031 37.515625 33.179688 36.1875 32.789062 34.679688 C 32.554688 33.742188 32.421875 32.777344 32.421875 31.84375 C 32.421875 30.90625 32.554688 29.996094 32.761719 29.109375 C 32.996094 28.222656 33.308594 27.390625 33.753906 26.585938 C 34.195312 25.777344 34.742188 25.050781 35.371094 24.398438 C 35.996094 23.746094 36.726562 23.175781 37.558594 22.679688 C 38.367188 22.1875 39.28125 21.820312 40.246094 21.585938 C 41.132812 21.351562 42.042969 21.25 42.929688 21.273438 C 43.84375 21.300781 44.703125 21.429688 45.5625 21.664062 C 46.425781 21.898438 47.234375 22.238281 47.988281 22.707031 C 48.746094 23.148438 49.449219 23.667969 50.074219 24.269531 C 50.699219 24.867188 51.246094 25.542969 51.691406 26.296875 C 52.132812 27.054688 52.472656 27.859375 52.707031 28.71875 C 52.863281 29.265625 52.96875 29.734375 53.046875 30.097656 C 53.125 30.460938 53.097656 30.75 53.019531 31.007812 C 52.917969 31.269531 52.707031 31.476562 52.367188 31.632812 C 52.03125 31.816406 51.535156 31.972656 50.855469 32.15625 L 39.226562 35.148438 C 39.515625 35.796875 39.878906 36.320312 40.324219 36.710938 C 40.765625 37.101562 41.234375 37.359375 41.757812 37.515625 C 42.253906 37.671875 42.773438 37.75 43.269531 37.75 C 43.789062 37.75 44.261719 37.699219 44.675781 37.566406 C 45.070312 37.464844 45.460938 37.332031 45.851562 37.152344 C 46.242188 36.96875 46.605469 36.761719 46.945312 36.527344 C 47.285156 36.292969 47.597656 36.058594 47.882812 35.796875 C 48.144531 35.539062 48.355469 35.277344 48.511719 35.042969 C 48.640625 34.863281 48.769531 34.707031 48.875 34.628906 C 48.980469 34.523438 49.109375 34.445312 49.238281 34.417969 C 49.371094 34.394531 49.527344 34.394531 49.710938 34.445312 C 49.890625 34.496094 50.074219 34.601562 50.308594 34.730469 L 52.523438 36.214844 C 52.683594 36.320312 52.785156 36.421875 52.839844 36.527344 C 52.890625 36.632812 52.941406 36.734375 52.96875 36.867188 C 53.019531 37.074219 53.019531 37.28125 52.941406 37.464844 C 52.890625 37.621094 52.785156 37.800781 52.65625 37.957031 M 41.417969 26.53125 C 41 26.636719 40.609375 26.820312 40.269531 27.105469 C 39.933594 27.367188 39.621094 27.679688 39.332031 28.066406 C 39.070312 28.433594 38.835938 28.824219 38.65625 29.265625 C 38.472656 29.683594 38.34375 30.097656 38.261719 30.515625 L 46.527344 28.40625 C 46.191406 28.042969 45.851562 27.730469 45.484375 27.445312 C 45.121094 27.15625 44.753906 26.921875 44.339844 26.742188 C 43.921875 26.558594 43.476562 26.453125 43.007812 26.402344 C 42.539062 26.324219 42.019531 26.375 41.417969 26.53125 "/>
<path style=" stroke:none;fill-rule:nonzero;fill:rgb(19.60907%,34.509277%,65.098572%);fill-opacity:1;" d="M 9.660156 38.113281 C 9.660156 37.644531 9.765625 37.308594 9.976562 37.125 C 10.183594 36.945312 10.496094 36.839844 10.914062 36.839844 L 14.773438 36.839844 C 15.164062 36.839844 15.476562 36.945312 15.710938 37.125 C 15.945312 37.308594 16.074219 37.644531 16.074219 38.113281 L 16.074219 41.367188 C 16.074219 41.5 16.050781 41.65625 15.972656 41.808594 C 15.917969 41.964844 15.816406 42.121094 15.710938 42.253906 C 15.605469 42.410156 15.449219 42.511719 15.292969 42.617188 C 15.136719 42.722656 14.953125 42.746094 14.746094 42.746094 L 10.886719 42.746094 C 10.054688 42.746094 9.660156 42.277344 9.660156 41.367188 Z M 9.660156 38.113281 "/>
<path style=" stroke:none;fill-rule:nonzero;fill:rgb(19.60907%,34.509277%,65.098572%);fill-opacity:1;" d="M 127.613281 22.550781 C 127.613281 22.082031 127.71875 21.742188 127.925781 21.5625 C 128.136719 21.378906 128.449219 21.273438 128.867188 21.273438 L 132.722656 21.273438 C 133.117188 21.273438 133.429688 21.378906 133.664062 21.5625 C 133.898438 21.742188 134.027344 22.082031 134.027344 22.550781 L 134.027344 25.804688 C 134.027344 25.933594 134 26.089844 133.921875 26.246094 C 133.871094 26.402344 133.765625 26.558594 133.664062 26.6875 C 133.558594 26.84375 133.402344 26.949219 133.246094 27.054688 C 133.089844 27.15625 132.90625 27.183594 132.699219 27.183594 L 128.839844 27.183594 C 128.003906 27.183594 127.613281 26.714844 127.613281 25.804688 Z M 127.613281 22.550781 "/>
<path style=" stroke:none;fill-rule:nonzero;fill:rgb(19.60907%,34.509277%,65.098572%);fill-opacity:1;" d="M 9.402344 51.308594 L 12.320312 51.308594 C 12.6875 51.308594 13.027344 51.363281 13.339844 51.441406 C 13.652344 51.519531 13.910156 51.648438 14.148438 51.832031 C 14.382812 52.011719 14.539062 52.222656 14.695312 52.480469 C 14.824219 52.742188 14.902344 53.054688 14.902344 53.417969 C 14.902344 53.914062 14.773438 54.304688 14.511719 54.589844 C 14.25 54.902344 13.886719 55.109375 13.46875 55.265625 L 13.46875 55.292969 C 13.730469 55.320312 13.964844 55.371094 14.171875 55.5 C 14.382812 55.605469 14.589844 55.761719 14.746094 55.941406 C 14.902344 56.125 15.03125 56.332031 15.136719 56.59375 C 15.242188 56.828125 15.269531 57.113281 15.269531 57.402344 C 15.269531 57.792969 15.191406 58.101562 15.03125 58.390625 C 14.875 58.675781 14.667969 58.910156 14.40625 59.117188 C 14.148438 59.328125 13.832031 59.457031 13.46875 59.5625 C 13.105469 59.664062 12.738281 59.71875 12.320312 59.71875 L 9.402344 59.71875 Z M 10.546875 54.796875 L 12.113281 54.796875 C 12.320312 54.796875 12.53125 54.773438 12.710938 54.746094 C 12.894531 54.695312 13.078125 54.640625 13.207031 54.539062 C 13.339844 54.433594 13.46875 54.304688 13.546875 54.148438 C 13.625 53.992188 13.675781 53.78125 13.675781 53.574219 C 13.675781 53.234375 13.574219 52.949219 13.363281 52.714844 C 13.15625 52.480469 12.816406 52.351562 12.347656 52.351562 L 10.546875 52.351562 Z M 10.546875 58.726562 L 12.21875 58.726562 C 12.398438 58.726562 12.582031 58.703125 12.789062 58.675781 C 13 58.648438 13.207031 58.570312 13.390625 58.46875 C 13.574219 58.363281 13.730469 58.207031 13.859375 58.023438 C 13.988281 57.84375 14.042969 57.609375 14.042969 57.296875 C 14.042969 56.800781 13.886719 56.410156 13.546875 56.175781 C 13.234375 55.917969 12.789062 55.8125 12.21875 55.8125 L 10.523438 55.8125 L 10.523438 58.726562 Z M 10.546875 58.726562 "/>
<path style=" stroke:none;fill-rule:nonzero;fill:rgb(19.60907%,34.509277%,65.098572%);fill-opacity:1;" d="M 17.433594 57.296875 C 17.433594 57.53125 17.484375 57.765625 17.589844 57.972656 C 17.691406 58.179688 17.847656 58.335938 18.003906 58.492188 C 18.1875 58.625 18.371094 58.753906 18.605469 58.832031 C 18.839844 58.910156 19.074219 58.960938 19.308594 58.960938 C 19.648438 58.960938 19.933594 58.882812 20.167969 58.726562 C 20.402344 58.570312 20.636719 58.363281 20.847656 58.128906 L 21.65625 58.753906 C 21.054688 59.507812 20.222656 59.898438 19.152344 59.898438 C 18.710938 59.898438 18.316406 59.820312 17.953125 59.664062 C 17.589844 59.507812 17.273438 59.300781 17.039062 59.039062 C 16.78125 58.78125 16.597656 58.46875 16.46875 58.101562 C 16.335938 57.738281 16.257812 57.347656 16.257812 56.933594 C 16.257812 56.515625 16.335938 56.125 16.46875 55.761719 C 16.625 55.398438 16.804688 55.085938 17.066406 54.824219 C 17.328125 54.5625 17.640625 54.355469 17.980469 54.199219 C 18.34375 54.042969 18.734375 53.964844 19.152344 53.964844 C 19.648438 53.964844 20.066406 54.042969 20.429688 54.226562 C 20.769531 54.40625 21.054688 54.617188 21.289062 54.902344 C 21.523438 55.1875 21.679688 55.5 21.757812 55.839844 C 21.863281 56.175781 21.917969 56.542969 21.917969 56.90625 L 21.917969 57.296875 Z M 20.796875 56.4375 C 20.796875 56.203125 20.742188 55.996094 20.691406 55.785156 C 20.636719 55.578125 20.535156 55.421875 20.378906 55.265625 C 20.246094 55.109375 20.066406 55.007812 19.882812 54.929688 C 19.675781 54.851562 19.4375 54.796875 19.179688 54.796875 C 18.917969 54.796875 18.683594 54.851562 18.449219 54.953125 C 18.238281 55.058594 18.058594 55.1875 17.902344 55.34375 C 17.746094 55.5 17.640625 55.683594 17.5625 55.863281 C 17.484375 56.046875 17.433594 56.253906 17.433594 56.4375 Z M 20.796875 56.4375 "/>
<path style=" stroke:none;fill-rule:nonzero;fill:rgb(19.60907%,34.509277%,65.098572%);fill-opacity:1;" d="M 26.792969 51.308594 L 29.738281 51.308594 C 30.285156 51.308594 30.730469 51.386719 31.066406 51.519531 C 31.40625 51.648438 31.691406 51.855469 31.902344 52.066406 C 32.109375 52.300781 32.242188 52.535156 32.320312 52.820312 C 32.398438 53.105469 32.449219 53.367188 32.449219 53.625 C 32.449219 53.886719 32.398438 54.148438 32.320312 54.433594 C 32.242188 54.71875 32.109375 54.980469 31.902344 55.1875 C 31.691406 55.421875 31.433594 55.605469 31.066406 55.734375 C 30.730469 55.890625 30.285156 55.941406 29.738281 55.941406 L 27.914062 55.941406 L 27.914062 59.640625 L 26.765625 59.640625 L 26.765625 51.308594 Z M 27.9375 55.007812 L 29.425781 55.007812 C 29.660156 55.007812 29.867188 54.980469 30.078125 54.953125 C 30.285156 54.929688 30.492188 54.851562 30.652344 54.746094 C 30.832031 54.640625 30.964844 54.511719 31.066406 54.328125 C 31.171875 54.148438 31.222656 53.914062 31.222656 53.625 C 31.222656 53.339844 31.171875 53.105469 31.066406 52.925781 C 30.964844 52.742188 30.832031 52.613281 30.652344 52.507812 C 30.46875 52.402344 30.285156 52.351562 30.078125 52.300781 C 29.867188 52.273438 29.632812 52.246094 29.425781 52.246094 L 27.9375 52.246094 Z M 27.9375 55.007812 "/>
<path style=" stroke:none;fill-rule:nonzero;fill:rgb(19.60907%,34.509277%,65.098572%);fill-opacity:1;" d="M 33.570312 54.09375 L 34.640625 54.09375 L 34.640625 54.953125 L 34.664062 54.953125 C 34.742188 54.796875 34.820312 54.667969 34.953125 54.539062 C 35.082031 54.40625 35.214844 54.304688 35.34375 54.226562 C 35.5 54.148438 35.65625 54.070312 35.8125 54.015625 C 35.996094 53.964844 36.152344 53.9375 36.335938 53.9375 C 36.515625 53.9375 36.671875 53.964844 36.804688 54.015625 L 36.75 55.164062 C 36.671875 55.136719 36.570312 55.109375 36.492188 55.109375 C 36.414062 55.085938 36.308594 55.085938 36.230469 55.085938 C 35.707031 55.085938 35.316406 55.242188 35.03125 55.527344 C 34.742188 55.8125 34.613281 56.28125 34.613281 56.878906 L 34.613281 59.691406 L 33.542969 59.691406 L 33.542969 54.09375 Z M 33.570312 54.09375 "/>
<path style=" stroke:none;fill-rule:nonzero;fill:rgb(19.60907%,34.509277%,65.098572%);fill-opacity:1;" d="M 37.480469 56.90625 C 37.480469 56.488281 37.558594 56.097656 37.714844 55.761719 C 37.871094 55.398438 38.082031 55.085938 38.34375 54.824219 C 38.601562 54.5625 38.914062 54.355469 39.28125 54.199219 C 39.644531 54.042969 40.035156 53.964844 40.453125 53.964844 C 40.871094 53.964844 41.261719 54.042969 41.625 54.199219 C 41.992188 54.355469 42.304688 54.5625 42.566406 54.824219 C 42.828125 55.085938 43.035156 55.398438 43.191406 55.761719 C 43.347656 56.125 43.425781 56.488281 43.425781 56.90625 C 43.425781 57.324219 43.347656 57.714844 43.191406 58.050781 C 43.035156 58.414062 42.828125 58.726562 42.566406 58.988281 C 42.304688 59.25 41.992188 59.457031 41.625 59.613281 C 41.261719 59.769531 40.871094 59.847656 40.453125 59.847656 C 40.035156 59.847656 39.644531 59.769531 39.28125 59.613281 C 38.914062 59.457031 38.601562 59.25 38.34375 58.988281 C 38.082031 58.726562 37.871094 58.414062 37.714844 58.050781 C 37.558594 57.6875 37.480469 57.324219 37.480469 56.90625 M 38.628906 56.90625 C 38.628906 57.191406 38.679688 57.453125 38.757812 57.6875 C 38.835938 57.921875 38.96875 58.128906 39.125 58.3125 C 39.28125 58.492188 39.488281 58.625 39.699219 58.703125 C 39.90625 58.78125 40.191406 58.859375 40.480469 58.859375 C 40.765625 58.859375 41.027344 58.804688 41.261719 58.703125 C 41.496094 58.597656 41.679688 58.46875 41.835938 58.3125 C 41.992188 58.128906 42.121094 57.945312 42.199219 57.6875 C 42.277344 57.453125 42.332031 57.191406 42.332031 56.90625 C 42.332031 56.621094 42.277344 56.359375 42.199219 56.125 C 42.121094 55.890625 41.992188 55.683594 41.835938 55.5 C 41.679688 55.320312 41.46875 55.1875 41.261719 55.109375 C 41.027344 55.007812 40.765625 54.953125 40.480469 54.953125 C 40.191406 54.953125 39.933594 55.007812 39.699219 55.109375 C 39.464844 55.214844 39.28125 55.34375 39.125 55.5 C 38.96875 55.683594 38.835938 55.863281 38.757812 56.125 C 38.679688 56.359375 38.628906 56.621094 38.628906 56.90625 "/>
<path style=" stroke:none;fill-rule:nonzero;fill:rgb(19.60907%,34.509277%,65.098572%);fill-opacity:1;" d="M 45.226562 55.007812 L 44.027344 55.007812 L 44.027344 54.070312 L 45.226562 54.070312 L 45.226562 52.820312 C 45.226562 52.066406 45.382812 51.519531 45.667969 51.152344 C 45.953125 50.789062 46.449219 50.609375 47.15625 50.609375 C 47.285156 50.609375 47.390625 50.609375 47.519531 50.609375 C 47.648438 50.609375 47.78125 50.632812 47.9375 50.6875 L 47.804688 51.621094 C 47.703125 51.570312 47.597656 51.542969 47.519531 51.542969 C 47.414062 51.519531 47.3125 51.519531 47.207031 51.519531 C 46.996094 51.519531 46.839844 51.542969 46.738281 51.597656 C 46.605469 51.648438 46.527344 51.753906 46.449219 51.855469 C 46.371094 51.960938 46.347656 52.089844 46.320312 52.246094 C 46.292969 52.402344 46.292969 52.585938 46.292969 52.769531 L 46.292969 54.070312 L 47.570312 54.070312 L 47.570312 55.007812 L 46.292969 55.007812 L 46.292969 59.691406 L 45.226562 59.691406 Z M 45.226562 55.007812 "/>
<path style=" stroke:none;fill-rule:nonzero;fill:rgb(19.60907%,34.509277%,65.098572%);fill-opacity:1;" d="M 49.578125 57.296875 C 49.578125 57.53125 49.632812 57.765625 49.734375 57.972656 C 49.839844 58.179688 49.96875 58.335938 50.152344 58.492188 C 50.335938 58.625 50.519531 58.753906 50.753906 58.832031 C 50.988281 58.910156 51.222656 58.960938 51.457031 58.960938 C 51.796875 58.960938 52.082031 58.882812 52.316406 58.726562 C 52.550781 58.570312 52.785156 58.363281 52.996094 58.128906 L 53.804688 58.753906 C 53.203125 59.507812 52.367188 59.898438 51.300781 59.898438 C 50.855469 59.898438 50.464844 59.820312 50.101562 59.664062 C 49.734375 59.507812 49.421875 59.300781 49.1875 59.039062 C 48.925781 58.78125 48.746094 58.46875 48.613281 58.101562 C 48.484375 57.738281 48.40625 57.347656 48.40625 56.933594 C 48.40625 56.515625 48.484375 56.125 48.613281 55.761719 C 48.769531 55.398438 48.953125 55.085938 49.214844 54.824219 C 49.476562 54.5625 49.789062 54.355469 50.125 54.199219 C 50.492188 54.042969 50.882812 53.964844 51.300781 53.964844 C 51.796875 53.964844 52.210938 54.042969 52.578125 54.226562 C 52.917969 54.40625 53.203125 54.617188 53.4375 54.902344 C 53.671875 55.1875 53.828125 55.5 53.90625 55.839844 C 54.011719 56.175781 54.0625 56.542969 54.0625 56.90625 L 54.0625 57.296875 Z M 52.96875 56.4375 C 52.96875 56.203125 52.917969 55.996094 52.863281 55.785156 C 52.785156 55.578125 52.707031 55.421875 52.550781 55.265625 C 52.421875 55.109375 52.238281 55.007812 52.054688 54.929688 C 51.847656 54.851562 51.613281 54.796875 51.351562 54.796875 C 51.089844 54.796875 50.855469 54.851562 50.621094 54.953125 C 50.414062 55.058594 50.230469 55.1875 50.074219 55.34375 C 49.917969 55.5 49.8125 55.683594 49.734375 55.863281 C 49.65625 56.046875 49.605469 56.253906 49.605469 56.4375 Z M 52.96875 56.4375 "/>
<path style=" stroke:none;fill-rule:nonzero;fill:rgb(19.60907%,34.509277%,65.098572%);fill-opacity:1;" d="M 58.367188 55.5 C 58.234375 55.34375 58.078125 55.214844 57.894531 55.109375 C 57.714844 55.007812 57.480469 54.953125 57.21875 54.953125 C 56.957031 54.953125 56.75 55.007812 56.566406 55.109375 C 56.382812 55.214844 56.28125 55.371094 56.28125 55.578125 C 56.28125 55.734375 56.332031 55.890625 56.4375 55.96875 C 56.539062 56.074219 56.671875 56.152344 56.828125 56.230469 C 56.984375 56.28125 57.140625 56.332031 57.296875 56.359375 C 57.453125 56.386719 57.609375 56.410156 57.714844 56.4375 C 57.949219 56.488281 58.15625 56.566406 58.367188 56.644531 C 58.574219 56.722656 58.730469 56.828125 58.886719 56.957031 C 59.042969 57.089844 59.148438 57.246094 59.226562 57.425781 C 59.304688 57.609375 59.355469 57.816406 59.355469 58.078125 C 59.355469 58.390625 59.277344 58.675781 59.148438 58.882812 C 59.015625 59.117188 58.835938 59.300781 58.625 59.429688 C 58.417969 59.5625 58.15625 59.664062 57.894531 59.742188 C 57.636719 59.796875 57.347656 59.847656 57.0625 59.847656 C 56.59375 59.847656 56.175781 59.769531 55.835938 59.640625 C 55.472656 59.507812 55.160156 59.25 54.898438 58.859375 L 55.707031 58.179688 C 55.886719 58.363281 56.070312 58.519531 56.28125 58.648438 C 56.488281 58.78125 56.75 58.859375 57.0625 58.859375 C 57.191406 58.859375 57.324219 58.832031 57.480469 58.804688 C 57.609375 58.78125 57.738281 58.726562 57.84375 58.675781 C 57.949219 58.625 58.027344 58.546875 58.105469 58.441406 C 58.183594 58.363281 58.210938 58.234375 58.210938 58.128906 C 58.210938 57.972656 58.15625 57.84375 58.050781 57.738281 C 57.949219 57.636719 57.84375 57.558594 57.6875 57.503906 C 57.558594 57.453125 57.402344 57.402344 57.246094 57.375 C 57.089844 57.347656 56.957031 57.296875 56.828125 57.296875 C 56.59375 57.246094 56.382812 57.167969 56.175781 57.113281 C 55.96875 57.035156 55.785156 56.957031 55.628906 56.828125 C 55.472656 56.699219 55.339844 56.566406 55.238281 56.386719 C 55.132812 56.203125 55.105469 55.96875 55.105469 55.707031 C 55.105469 55.421875 55.160156 55.164062 55.289062 54.953125 C 55.417969 54.746094 55.574219 54.5625 55.785156 54.40625 C 55.992188 54.277344 56.226562 54.148438 56.460938 54.09375 C 56.722656 54.015625 56.984375 53.992188 57.246094 53.992188 C 57.636719 53.992188 58 54.070312 58.339844 54.199219 C 58.679688 54.328125 58.964844 54.589844 59.171875 54.902344 Z M 58.367188 55.5 "/>
<path style=" stroke:none;fill-rule:nonzero;fill:rgb(19.60907%,34.509277%,65.098572%);fill-opacity:1;" d="M 63.65625 55.5 C 63.527344 55.34375 63.371094 55.214844 63.1875 55.109375 C 63.007812 55.007812 62.773438 54.953125 62.511719 54.953125 C 62.25 54.953125 62.042969 55.007812 61.859375 55.109375 C 61.675781 55.214844 61.574219 55.371094 61.574219 55.578125 C 61.574219 55.734375 61.625 55.890625 61.730469 55.96875 C 61.832031 56.046875 61.964844 56.152344 62.121094 56.230469 C 62.277344 56.28125 62.433594 56.332031 62.589844 56.359375 C 62.746094 56.386719 62.902344 56.410156 63.007812 56.4375 C 63.242188 56.488281 63.449219 56.566406 63.65625 56.644531 C 63.867188 56.722656 64.023438 56.828125 64.179688 56.957031 C 64.335938 57.089844 64.441406 57.246094 64.519531 57.425781 C 64.597656 57.609375 64.648438 57.816406 64.648438 58.078125 C 64.648438 58.390625 64.570312 58.675781 64.441406 58.882812 C 64.308594 59.117188 64.128906 59.300781 63.917969 59.429688 C 63.710938 59.5625 63.449219 59.664062 63.1875 59.742188 C 62.929688 59.796875 62.640625 59.847656 62.355469 59.847656 C 61.886719 59.847656 61.46875 59.769531 61.128906 59.640625 C 60.765625 59.507812 60.453125 59.25 60.191406 58.859375 L 61 58.179688 C 61.179688 58.363281 61.363281 58.519531 61.574219 58.648438 C 61.78125 58.78125 62.042969 58.859375 62.355469 58.859375 C 62.484375 58.859375 62.617188 58.832031 62.773438 58.804688 C 62.902344 58.78125 63.03125 58.726562 63.136719 58.675781 C 63.242188 58.625 63.320312 58.546875 63.398438 58.441406 C 63.476562 58.363281 63.5 58.234375 63.5 58.128906 C 63.5 57.972656 63.449219 57.84375 63.34375 57.738281 C 63.242188 57.636719 63.136719 57.558594 62.980469 57.503906 C 62.851562 57.453125 62.695312 57.402344 62.535156 57.375 C 62.378906 57.347656 62.25 57.296875 62.121094 57.296875 C 61.886719 57.246094 61.675781 57.167969 61.46875 57.113281 C 61.257812 57.035156 61.078125 56.957031 60.921875 56.828125 C 60.765625 56.699219 60.632812 56.566406 60.53125 56.386719 C 60.425781 56.203125 60.398438 55.96875 60.398438 55.707031 C 60.398438 55.421875 60.453125 55.164062 60.582031 54.953125 C 60.710938 54.746094 60.867188 54.5625 61.078125 54.40625 C 61.285156 54.277344 61.519531 54.148438 61.753906 54.09375 C 62.015625 54.015625 62.277344 53.992188 62.535156 53.992188 C 62.929688 53.992188 63.292969 54.070312 63.632812 54.199219 C 63.972656 54.328125 64.257812 54.589844 64.464844 54.902344 Z M 63.65625 55.5 "/>
<path style=" stroke:none;fill-rule:nonzero;fill:rgb(19.60907%,34.509277%,65.098572%);fill-opacity:1;" d="M 65.769531 52.066406 C 65.769531 51.855469 65.847656 51.675781 66.003906 51.519531 C 66.160156 51.363281 66.34375 51.285156 66.550781 51.285156 C 66.761719 51.285156 66.941406 51.363281 67.101562 51.519531 C 67.257812 51.675781 67.335938 51.855469 67.335938 52.066406 C 67.335938 52.273438 67.257812 52.457031 67.101562 52.613281 C 66.941406 52.769531 66.761719 52.847656 66.550781 52.847656 C 66.34375 52.847656 66.160156 52.769531 66.003906 52.613281 C 65.847656 52.480469 65.769531 52.300781 65.769531 52.066406 M 66.003906 54.09375 L 67.074219 54.09375 L 67.074219 59.71875 L 66.003906 59.71875 Z M 66.003906 54.09375 "/>
<path style=" stroke:none;fill-rule:nonzero;fill:rgb(19.60907%,34.509277%,65.098572%);fill-opacity:1;" d="M 68.507812 56.90625 C 68.507812 56.488281 68.585938 56.097656 68.742188 55.761719 C 68.898438 55.398438 69.105469 55.085938 69.367188 54.824219 C 69.628906 54.5625 69.941406 54.355469 70.308594 54.199219 C 70.671875 54.042969 71.0625 53.964844 71.480469 53.964844 C 71.898438 53.964844 72.289062 54.042969 72.652344 54.199219 C 73.019531 54.355469 73.332031 54.5625 73.589844 54.824219 C 73.851562 55.085938 74.0625 55.398438 74.21875 55.761719 C 74.375 56.125 74.453125 56.488281 74.453125 56.90625 C 74.453125 57.324219 74.375 57.714844 74.21875 58.050781 C 74.0625 58.414062 73.851562 58.726562 73.589844 58.988281 C 73.332031 59.25 73.019531 59.457031 72.652344 59.613281 C 72.289062 59.769531 71.898438 59.847656 71.480469 59.847656 C 71.0625 59.847656 70.671875 59.769531 70.308594 59.613281 C 69.941406 59.457031 69.628906 59.25 69.367188 58.988281 C 69.105469 58.726562 68.898438 58.414062 68.742188 58.050781 C 68.585938 57.6875 68.507812 57.324219 68.507812 56.90625 M 69.65625 56.90625 C 69.65625 57.191406 69.707031 57.453125 69.785156 57.6875 C 69.863281 57.921875 69.992188 58.128906 70.148438 58.3125 C 70.308594 58.492188 70.515625 58.625 70.722656 58.703125 C 70.933594 58.78125 71.21875 58.859375 71.507812 58.859375 C 71.792969 58.859375 72.054688 58.804688 72.289062 58.703125 C 72.523438 58.597656 72.707031 58.46875 72.863281 58.3125 C 73.019531 58.128906 73.148438 57.945312 73.226562 57.6875 C 73.304688 57.453125 73.355469 57.191406 73.355469 56.90625 C 73.355469 56.621094 73.304688 56.359375 73.226562 56.125 C 73.148438 55.890625 73.019531 55.683594 72.863281 55.5 C 72.707031 55.320312 72.496094 55.1875 72.289062 55.109375 C 72.054688 55.007812 71.792969 54.953125 71.507812 54.953125 C 71.21875 54.953125 70.957031 55.007812 70.722656 55.109375 C 70.488281 55.214844 70.308594 55.34375 70.148438 55.5 C 69.992188 55.683594 69.863281 55.863281 69.785156 56.125 C 69.707031 56.359375 69.65625 56.621094 69.65625 56.90625 "/>
<path style=" stroke:none;fill-rule:nonzero;fill:rgb(19.60907%,34.509277%,65.098572%);fill-opacity:1;" d="M 75.835938 54.09375 L 76.902344 54.09375 L 76.902344 54.953125 L 76.929688 54.953125 C 77.058594 54.640625 77.292969 54.40625 77.632812 54.226562 C 77.972656 54.042969 78.335938 53.9375 78.78125 53.9375 C 79.039062 53.9375 79.300781 53.992188 79.5625 54.070312 C 79.824219 54.148438 80.03125 54.277344 80.214844 54.460938 C 80.398438 54.640625 80.554688 54.851562 80.65625 55.136719 C 80.761719 55.398438 80.8125 55.734375 80.8125 56.097656 L 80.8125 59.71875 L 79.746094 59.71875 L 79.746094 56.386719 C 79.746094 56.125 79.71875 55.890625 79.640625 55.707031 C 79.5625 55.527344 79.484375 55.371094 79.355469 55.265625 C 79.222656 55.164062 79.09375 55.058594 78.9375 55.007812 C 78.78125 54.953125 78.625 54.929688 78.46875 54.929688 C 78.234375 54.929688 78.050781 54.953125 77.839844 55.03125 C 77.660156 55.109375 77.476562 55.214844 77.347656 55.371094 C 77.214844 55.527344 77.085938 55.707031 77.007812 55.96875 C 76.929688 56.203125 76.875 56.488281 76.875 56.800781 L 76.875 59.691406 L 75.808594 59.691406 L 75.808594 54.09375 Z M 75.835938 54.09375 "/>
<path style=" stroke:none;fill-rule:nonzero;fill:rgb(19.60907%,34.509277%,65.098572%);fill-opacity:1;" d="M 82.484375 54.773438 C 82.796875 54.484375 83.132812 54.277344 83.527344 54.148438 C 83.917969 54.015625 84.308594 53.9375 84.726562 53.9375 C 85.140625 53.9375 85.480469 53.992188 85.792969 54.09375 C 86.082031 54.199219 86.339844 54.328125 86.523438 54.511719 C 86.707031 54.695312 86.863281 54.875 86.941406 55.109375 C 87.019531 55.34375 87.070312 55.578125 87.070312 55.8125 L 87.070312 58.675781 C 87.070312 58.882812 87.070312 59.066406 87.070312 59.222656 C 87.070312 59.378906 87.097656 59.535156 87.097656 59.691406 L 86.160156 59.691406 C 86.132812 59.40625 86.132812 59.117188 86.132812 58.832031 L 86.105469 58.832031 C 85.871094 59.195312 85.585938 59.457031 85.273438 59.613281 C 84.960938 59.769531 84.566406 59.847656 84.152344 59.847656 C 83.890625 59.847656 83.628906 59.820312 83.394531 59.742188 C 83.160156 59.664062 82.953125 59.5625 82.769531 59.429688 C 82.585938 59.300781 82.457031 59.117188 82.351562 58.910156 C 82.246094 58.703125 82.195312 58.46875 82.195312 58.179688 C 82.195312 57.816406 82.273438 57.503906 82.429688 57.269531 C 82.585938 57.035156 82.820312 56.828125 83.109375 56.671875 C 83.394531 56.515625 83.707031 56.410156 84.097656 56.332031 C 84.464844 56.253906 84.882812 56.230469 85.296875 56.230469 L 86.082031 56.230469 L 86.082031 55.996094 C 86.082031 55.863281 86.054688 55.707031 86.003906 55.578125 C 85.949219 55.449219 85.871094 55.320312 85.742188 55.1875 C 85.636719 55.085938 85.480469 54.980469 85.324219 54.929688 C 85.167969 54.851562 84.960938 54.824219 84.726562 54.824219 C 84.515625 54.824219 84.332031 54.851562 84.175781 54.875 C 84.019531 54.929688 83.890625 54.953125 83.761719 55.03125 C 83.628906 55.085938 83.527344 55.164062 83.421875 55.242188 C 83.316406 55.320312 83.210938 55.398438 83.132812 55.476562 Z M 85.480469 57.011719 C 85.21875 57.011719 84.960938 57.035156 84.699219 57.0625 C 84.4375 57.089844 84.203125 57.140625 83.96875 57.21875 C 83.761719 57.296875 83.578125 57.402344 83.421875 57.558594 C 83.289062 57.6875 83.210938 57.867188 83.210938 58.101562 C 83.210938 58.414062 83.316406 58.648438 83.550781 58.804688 C 83.785156 58.960938 84.074219 59.015625 84.4375 59.015625 C 84.726562 59.015625 84.984375 58.960938 85.195312 58.859375 C 85.402344 58.753906 85.558594 58.625 85.6875 58.46875 C 85.820312 58.3125 85.898438 58.128906 85.949219 57.945312 C 86.003906 57.765625 86.027344 57.558594 86.027344 57.375 L 86.027344 57.011719 Z M 85.480469 57.011719 "/>
<path style=" stroke:none;fill-rule:nonzero;fill:rgb(19.60907%,34.509277%,65.098572%);fill-opacity:1;" d="M 88.6875 50.738281 L 89.757812 50.738281 L 89.757812 59.71875 L 88.6875 59.71875 Z M 88.6875 50.738281 "/>
<path style=" stroke:none;fill-rule:nonzero;fill:rgb(0%,0%,0%);fill-opacity:1;" d="M 94.816406 47.535156 L 95.753906 47.535156 L 95.753906 63.230469 L 94.816406 63.230469 Z M 94.816406 47.535156 "/>
<path style=" stroke:none;fill-rule:nonzero;fill:rgb(19.60907%,34.509277%,65.098572%);fill-opacity:1;" d="M 99.976562 51.308594 L 101.125 51.308594 L 101.125 54.796875 L 105.476562 54.796875 L 105.476562 51.308594 L 106.625 51.308594 L 106.625 59.71875 L 105.476562 59.71875 L 105.476562 55.863281 L 101.125 55.863281 L 101.125 59.71875 L 99.976562 59.71875 Z M 99.976562 51.308594 "/>
<path style=" stroke:none;fill-rule:nonzero;fill:rgb(19.60907%,34.509277%,65.098572%);fill-opacity:1;" d="M 108.527344 54.773438 C 108.839844 54.484375 109.179688 54.277344 109.570312 54.148438 C 109.964844 54.015625 110.355469 53.9375 110.769531 53.9375 C 111.1875 53.9375 111.527344 53.992188 111.839844 54.09375 C 112.125 54.199219 112.386719 54.328125 112.570312 54.511719 C 112.753906 54.695312 112.910156 54.875 112.988281 55.109375 C 113.066406 55.34375 113.117188 55.578125 113.117188 55.8125 L 113.117188 58.675781 C 113.117188 58.882812 113.117188 59.066406 113.117188 59.222656 C 113.117188 59.378906 113.144531 59.535156 113.144531 59.691406 L 112.207031 59.691406 C 112.179688 59.40625 112.179688 59.117188 112.179688 58.832031 L 112.152344 58.832031 C 111.917969 59.195312 111.632812 59.457031 111.320312 59.613281 C 111.003906 59.769531 110.613281 59.847656 110.199219 59.847656 C 109.9375 59.847656 109.675781 59.820312 109.441406 59.742188 C 109.207031 59.664062 109 59.5625 108.816406 59.429688 C 108.632812 59.300781 108.503906 59.117188 108.398438 58.910156 C 108.292969 58.703125 108.242188 58.46875 108.242188 58.179688 C 108.242188 57.816406 108.320312 57.503906 108.476562 57.269531 C 108.632812 57.035156 108.867188 56.828125 109.15625 56.671875 C 109.441406 56.515625 109.753906 56.410156 110.144531 56.332031 C 110.511719 56.253906 110.925781 56.230469 111.34375 56.230469 L 112.125 56.230469 L 112.125 55.996094 C 112.125 55.863281 112.101562 55.707031 112.046875 55.578125 C 111.996094 55.449219 111.917969 55.320312 111.789062 55.1875 C 111.683594 55.085938 111.527344 54.980469 111.371094 54.929688 C 111.214844 54.851562 111.003906 54.824219 110.769531 54.824219 C 110.5625 54.824219 110.378906 54.851562 110.222656 54.875 C 110.066406 54.929688 109.9375 54.953125 109.804688 55.03125 C 109.675781 55.085938 109.570312 55.164062 109.46875 55.242188 C 109.363281 55.320312 109.257812 55.398438 109.179688 55.476562 Z M 111.554688 57.011719 C 111.292969 57.011719 111.03125 57.035156 110.769531 57.0625 C 110.511719 57.089844 110.277344 57.140625 110.042969 57.21875 C 109.804688 57.296875 109.648438 57.402344 109.492188 57.558594 C 109.335938 57.714844 109.285156 57.867188 109.285156 58.101562 C 109.285156 58.414062 109.390625 58.648438 109.625 58.804688 C 109.859375 58.960938 110.144531 59.015625 110.511719 59.015625 C 110.796875 59.015625 111.058594 58.960938 111.265625 58.859375 C 111.476562 58.753906 111.632812 58.625 111.761719 58.46875 C 111.890625 58.3125 111.96875 58.128906 112.023438 57.945312 C 112.074219 57.765625 112.101562 57.558594 112.101562 57.375 L 112.101562 57.011719 Z M 111.554688 57.011719 "/>
<path style=" stroke:none;fill-rule:nonzero;fill:rgb(19.60907%,34.509277%,65.098572%);fill-opacity:1;" d="M 114.003906 54.09375 L 115.230469 54.09375 L 116.925781 58.390625 L 118.539062 54.09375 L 119.660156 54.09375 L 117.472656 59.71875 L 116.296875 59.71875 Z M 114.003906 54.09375 "/>
<path style=" stroke:none;fill-rule:nonzero;fill:rgb(19.60907%,34.509277%,65.098572%);fill-opacity:1;" d="M 121.410156 57.296875 C 121.410156 57.53125 121.460938 57.765625 121.566406 57.972656 C 121.667969 58.179688 121.800781 58.335938 121.980469 58.492188 C 122.164062 58.625 122.347656 58.753906 122.582031 58.832031 C 122.816406 58.910156 123.050781 58.960938 123.285156 58.960938 C 123.625 58.960938 123.910156 58.882812 124.144531 58.726562 C 124.382812 58.570312 124.617188 58.363281 124.824219 58.128906 L 125.632812 58.753906 C 125.03125 59.507812 124.199219 59.898438 123.128906 59.898438 C 122.6875 59.898438 122.296875 59.820312 121.929688 59.664062 C 121.566406 59.507812 121.253906 59.300781 121.019531 59.039062 C 120.757812 58.78125 120.574219 58.46875 120.445312 58.101562 C 120.3125 57.738281 120.234375 57.347656 120.234375 56.933594 C 120.234375 56.515625 120.3125 56.125 120.445312 55.761719 C 120.601562 55.398438 120.78125 55.085938 121.042969 54.824219 C 121.304688 54.5625 121.617188 54.355469 121.957031 54.199219 C 122.320312 54.042969 122.710938 53.964844 123.128906 53.964844 C 123.625 53.964844 124.042969 54.042969 124.40625 54.226562 C 124.746094 54.40625 125.03125 54.617188 125.265625 54.902344 C 125.476562 55.1875 125.660156 55.5 125.738281 55.839844 C 125.839844 56.175781 125.894531 56.542969 125.894531 56.90625 L 125.894531 57.296875 Z M 124.796875 56.4375 C 124.796875 56.203125 124.746094 55.996094 124.695312 55.785156 C 124.617188 55.578125 124.539062 55.421875 124.382812 55.265625 C 124.25 55.109375 124.066406 55.007812 123.886719 54.929688 C 123.675781 54.851562 123.441406 54.796875 123.179688 54.796875 C 122.921875 54.796875 122.6875 54.851562 122.453125 54.953125 C 122.242188 55.058594 122.058594 55.1875 121.902344 55.34375 C 121.746094 55.5 121.644531 55.683594 121.566406 55.863281 C 121.488281 56.046875 121.433594 56.253906 121.433594 56.4375 Z M 124.796875 56.4375 "/>
<path style=" stroke:none;fill-rule:nonzero;fill:rgb(19.60907%,34.509277%,65.098572%);fill-opacity:1;" d="M 130.792969 51.308594 L 136.085938 51.308594 L 136.085938 52.378906 L 131.941406 52.378906 L 131.941406 55.007812 L 135.800781 55.007812 L 135.800781 56.074219 L 131.941406 56.074219 L 131.941406 59.71875 L 130.792969 59.71875 Z M 130.792969 51.308594 "/>
<path style=" stroke:none;fill-rule:nonzero;fill:rgb(19.60907%,34.509277%,65.098572%);fill-opacity:1;" d="M 142.34375 59.71875 L 141.277344 59.71875 L 141.277344 58.859375 L 141.25 58.859375 C 141.121094 59.171875 140.886719 59.40625 140.546875 59.585938 C 140.207031 59.769531 139.816406 59.875 139.398438 59.875 C 139.113281 59.875 138.851562 59.820312 138.617188 59.742188 C 138.382812 59.664062 138.148438 59.535156 137.964844 59.351562 C 137.78125 59.171875 137.625 58.960938 137.523438 58.675781 C 137.417969 58.414062 137.363281 58.078125 137.363281 57.714844 L 137.363281 54.09375 L 138.433594 54.09375 L 138.433594 57.425781 C 138.433594 57.6875 138.460938 57.921875 138.539062 58.101562 C 138.617188 58.285156 138.695312 58.441406 138.824219 58.546875 C 138.957031 58.648438 139.085938 58.753906 139.242188 58.804688 C 139.398438 58.859375 139.554688 58.882812 139.710938 58.882812 C 139.921875 58.882812 140.128906 58.859375 140.335938 58.78125 C 140.519531 58.703125 140.703125 58.597656 140.832031 58.441406 C 140.964844 58.285156 141.09375 58.101562 141.171875 57.84375 C 141.25 57.609375 141.300781 57.324219 141.300781 57.011719 L 141.300781 54.121094 L 142.371094 54.121094 L 142.371094 59.71875 Z M 142.34375 59.71875 "/>
<path style=" stroke:none;fill-rule:nonzero;fill:rgb(19.60907%,34.509277%,65.098572%);fill-opacity:1;" d="M 143.933594 54.09375 L 145.003906 54.09375 L 145.003906 54.953125 L 145.03125 54.953125 C 145.160156 54.640625 145.394531 54.40625 145.734375 54.226562 C 146.074219 54.042969 146.464844 53.9375 146.882812 53.9375 C 147.140625 53.9375 147.402344 53.992188 147.664062 54.070312 C 147.925781 54.148438 148.132812 54.277344 148.316406 54.460938 C 148.496094 54.640625 148.65625 54.851562 148.757812 55.136719 C 148.863281 55.421875 148.914062 55.734375 148.914062 56.097656 L 148.914062 59.71875 L 147.847656 59.71875 L 147.847656 56.386719 C 147.847656 56.125 147.820312 55.890625 147.742188 55.707031 C 147.664062 55.527344 147.585938 55.371094 147.457031 55.265625 C 147.324219 55.164062 147.195312 55.058594 147.039062 55.007812 C 146.882812 54.953125 146.726562 54.929688 146.570312 54.929688 C 146.359375 54.929688 146.152344 54.953125 145.941406 55.03125 C 145.761719 55.109375 145.578125 55.214844 145.449219 55.371094 C 145.316406 55.527344 145.1875 55.707031 145.109375 55.96875 C 145.03125 56.230469 144.976562 56.488281 144.976562 56.800781 L 144.976562 59.691406 L 143.910156 59.691406 L 143.910156 54.09375 Z M 143.933594 54.09375 "/>
<path style=" stroke:none;fill-rule:nonzero;fill:rgb(19.60907%,34.509277%,65.098572%);fill-opacity:1;" d="M 151.625 59.015625 C 151.625 58.804688 151.703125 58.625 151.863281 58.46875 C 152.019531 58.3125 152.199219 58.234375 152.410156 58.234375 C 152.617188 58.234375 152.800781 58.3125 152.957031 58.46875 C 153.113281 58.625 153.191406 58.804688 153.191406 59.015625 C 153.191406 59.222656 153.113281 59.40625 152.957031 59.5625 C 152.800781 59.71875 152.617188 59.796875 152.410156 59.796875 C 152.199219 59.796875 152.019531 59.71875 151.863281 59.5625 C 151.703125 59.40625 151.625 59.222656 151.625 59.015625 M 152.957031 57.296875 L 151.808594 57.296875 L 151.808594 51.308594 L 152.957031 51.308594 Z M 152.957031 57.296875 "/>
</g>
</svg>
